<mxfile host="65bd71144e">
    <diagram id="QewX8ZrJj1PhDHS1zCUB" name="Page-1">
        <mxGraphModel dx="907" dy="630" grid="0" gridSize="10" guides="1" tooltips="1" connect="1" arrows="1" fold="1" page="1" pageScale="1" pageWidth="827" pageHeight="1169" math="0" shadow="0">
            <root>
                <mxCell id="0"/>
                <mxCell id="1" parent="0"/>
                <mxCell id="26" value="&lt;b&gt;Docker container&lt;/b&gt;" style="rounded=0;whiteSpace=wrap;html=1;dashed=1;fillColor=none;align=left;verticalAlign=top;spacingLeft=5;" parent="1" vertex="1">
                    <mxGeometry x="90" y="20" width="480" height="120" as="geometry"/>
                </mxCell>
                <mxCell id="2" value="ユーザー" style="shape=umlActor;verticalLabelPosition=bottom;verticalAlign=top;html=1;outlineConnect=0;" parent="1" vertex="1">
                    <mxGeometry x="20" y="50" width="30" height="60" as="geometry"/>
                </mxCell>
                <mxCell id="14" value="" style="edgeStyle=none;html=1;entryX=1;entryY=0.5;entryDx=0;entryDy=0;endArrow=block;endFill=1;" parent="1" source="5" target="4" edge="1">
                    <mxGeometry relative="1" as="geometry"/>
                </mxCell>
                <mxCell id="5" value="&lt;b&gt;python&lt;br&gt;&lt;/b&gt;app/main.py" style="rounded=1;whiteSpace=wrap;html=1;align=left;spacingLeft=5;fillColor=#dae8fc;strokeColor=#6c8ebf;" parent="1" vertex="1">
                    <mxGeometry x="440" y="50" width="120" height="60" as="geometry"/>
                </mxCell>
                <mxCell id="10" value="docker&lt;br&gt;/grafana" style="shape=cylinder3;whiteSpace=wrap;html=1;boundedLbl=1;backgroundOutline=1;size=7.526315789473642;" parent="1" vertex="1">
                    <mxGeometry x="120" y="160" width="80" height="50" as="geometry"/>
                </mxCell>
                <mxCell id="11" value="docker&lt;br&gt;/influxdb" style="shape=cylinder3;whiteSpace=wrap;html=1;boundedLbl=1;backgroundOutline=1;size=7.526315789473642;" parent="1" vertex="1">
                    <mxGeometry x="290" y="160" width="80" height="50" as="geometry"/>
                </mxCell>
                <mxCell id="12" value="" style="edgeStyle=none;html=1;endArrow=block;endFill=1;" parent="1" source="4" edge="1">
                    <mxGeometry relative="1" as="geometry">
                        <mxPoint x="220" y="80" as="targetPoint"/>
                    </mxGeometry>
                </mxCell>
                <mxCell id="15" value="&lt;b&gt;Switchbot API&lt;br&gt;&lt;/b&gt;" style="rounded=0;whiteSpace=wrap;html=1;" parent="1" vertex="1">
                    <mxGeometry x="450" y="190" width="100" height="50" as="geometry"/>
                </mxCell>
                <mxCell id="16" value="" style="endArrow=block;startArrow=block;html=1;exitX=0.5;exitY=0;exitDx=0;exitDy=0;entryX=0.5;entryY=1;entryDx=0;entryDy=0;endFill=1;startFill=1;" parent="1" source="15" target="5" edge="1">
                    <mxGeometry width="50" height="50" relative="1" as="geometry">
                        <mxPoint x="420" y="80" as="sourcePoint"/>
                        <mxPoint x="470" y="30" as="targetPoint"/>
                    </mxGeometry>
                </mxCell>
                <mxCell id="17" value="get /devices/{id}/status" style="edgeLabel;html=1;align=center;verticalAlign=middle;resizable=0;points=[];" parent="16" vertex="1" connectable="0">
                    <mxGeometry x="-0.02" y="-1" relative="1" as="geometry">
                        <mxPoint x="-1" y="9" as="offset"/>
                    </mxGeometry>
                </mxCell>
                <mxCell id="18" value="" style="endArrow=none;html=1;entryX=0.5;entryY=1;entryDx=0;entryDy=0;exitX=0.5;exitY=0;exitDx=0;exitDy=0;exitPerimeter=0;" parent="1" source="10" target="3" edge="1">
                    <mxGeometry width="50" height="50" relative="1" as="geometry">
                        <mxPoint x="400" y="40" as="sourcePoint"/>
                        <mxPoint x="450" y="-10" as="targetPoint"/>
                    </mxGeometry>
                </mxCell>
                <mxCell id="19" value="" style="endArrow=none;html=1;entryX=0.5;entryY=1;entryDx=0;entryDy=0;" parent="1" source="11" target="4" edge="1">
                    <mxGeometry width="50" height="50" relative="1" as="geometry">
                        <mxPoint x="170" y="150" as="sourcePoint"/>
                        <mxPoint x="170" y="120" as="targetPoint"/>
                    </mxGeometry>
                </mxCell>
                <mxCell id="20" value="" style="edgeStyle=none;html=1;startArrow=none;startFill=0;endArrow=block;endFill=1;" parent="1" source="3" target="2" edge="1">
                    <mxGeometry relative="1" as="geometry"/>
                </mxCell>
                <mxCell id="3" value="&lt;b&gt;grafana&lt;br&gt;&lt;/b&gt;:3000" style="rounded=1;whiteSpace=wrap;html=1;align=left;spacingLeft=6;fillColor=#dae8fc;strokeColor=#6c8ebf;" parent="1" vertex="1">
                    <mxGeometry x="100" y="50" width="120" height="60" as="geometry"/>
                </mxCell>
                <mxCell id="6" value="" style="shape=image;verticalLabelPosition=bottom;labelBackgroundColor=default;verticalAlign=top;aspect=fixed;imageAspect=0;image=https://cdn.icon-icons.com/icons2/2699/PNG/512/grafana_logo_icon_171048.png;" parent="1" vertex="1">
                    <mxGeometry x="170" y="60" width="40" height="40" as="geometry"/>
                </mxCell>
                <mxCell id="4" value="&lt;b&gt;influxdb&lt;br&gt;&lt;/b&gt;:8086" style="rounded=1;whiteSpace=wrap;html=1;align=left;spacingLeft=5;fillColor=#dae8fc;strokeColor=#6c8ebf;" parent="1" vertex="1">
                    <mxGeometry x="270" y="50" width="120" height="60" as="geometry"/>
                </mxCell>
                <mxCell id="7" value="" style="shape=image;verticalLabelPosition=bottom;labelBackgroundColor=default;verticalAlign=top;aspect=fixed;imageAspect=0;image=https://assets.zabbix.com/img/brands/influxdb.svg;" parent="1" vertex="1">
                    <mxGeometry x="340" y="60" width="40" height="40" as="geometry"/>
                </mxCell>
            </root>
        </mxGraphModel>
    </diagram>
</mxfile>